<?xml version="1.0" encoding="UTF-8"?>
<svg xmlns="http://www.w3.org/2000/svg" viewBox="0 0 2400 1200" font-family="Arial, Helvetica, sans-serif">
  <rect width="2400" height="1200" fill="#ffffff"/>

  <!-- TOP HEADERS -->
  <text x="210"  y="55" font-size="30" font-weight="700" fill="#0f766e" text-anchor="middle">Multi-Vector Assets</text>
  <text x="900"  y="55" font-size="30" font-weight="700" fill="#0f766e" text-anchor="middle">Edge Gateway</text>
  <text x="1400" y="55" font-size="30" font-weight="700" fill="#0f766e" text-anchor="middle">MING Stack</text>
  <text x="2095" y="55" font-size="30" font-weight="700" fill="#0f766e" text-anchor="middle">Operator UI</text>
  <line x1="60" y1="78" x2="2340" y2="78" stroke="#cbd5e1" stroke-width="1"/>

  <!-- FAST LABEL -->
  <rect x="60" y="100" width="380" height="34" fill="#0f766e" rx="6"/>
  <text x="74" y="123" font-size="16" font-weight="700" fill="#ffffff">FAST &#183; Mechanical / Electrical &#183; 1 s</text>

  <!-- CARD 1 PV -->
  <g transform="translate(60, 144)">
    <rect width="380" height="92" fill="#f0fdfa" stroke="#0f766e" stroke-width="2" rx="10"/>
    <g transform="translate(18, 16)">
      <rect width="60" height="60" fill="#0f766e"/>
      <line x1="0" y1="20" x2="60" y2="20" stroke="#ccfbf1" stroke-width="2"/>
      <line x1="0" y1="40" x2="60" y2="40" stroke="#ccfbf1" stroke-width="2"/>
      <line x1="20" y1="0" x2="20" y2="60" stroke="#ccfbf1" stroke-width="2"/>
      <line x1="40" y1="0" x2="40" y2="60" stroke="#ccfbf1" stroke-width="2"/>
    </g>
    <text x="100" y="40" font-size="22" font-weight="700" fill="#1f2937">Photovoltaic (PV)</text>
    <text x="100" y="68" font-size="14" fill="#475569">PV-Hulajnogi &#183; PV-Rotate &#183; PV-Agro</text>
  </g>

  <!-- CARD 2 Wind -->
  <g transform="translate(60, 246)">
    <rect width="380" height="92" fill="#f0fdfa" stroke="#0f766e" stroke-width="2" rx="10"/>
    <g transform="translate(18, 16)">
      <rect x="27" y="32" width="6" height="28" fill="#0f766e"/>
      <circle cx="30" cy="30" r="4" fill="#0f766e"/>
      <path d="M30,30 L30,4 L34,10 Z" fill="#0f766e"/>
      <path d="M30,30 L54,40 L50,34 Z" fill="#0f766e"/>
      <path d="M30,30 L6,40 L10,34 Z" fill="#0f766e"/>
    </g>
    <text x="100" y="40" font-size="22" font-weight="700" fill="#1f2937">Wind</text>
    <text x="100" y="68" font-size="14" fill="#475569">VAWT (vertical) &#183; HAWT (horizontal)</text>
  </g>

  <!-- CARD 3 Engine -->
  <g transform="translate(60, 348)">
    <rect width="380" height="92" fill="#f0fdfa" stroke="#0f766e" stroke-width="2" rx="10"/>
    <g transform="translate(18, 16)">
      <rect x="6" y="20" width="48" height="22" fill="none" stroke="#0f766e" stroke-width="2"/>
      <rect x="14" y="14" width="32" height="14" fill="#0f766e"/>
      <line x1="30" y1="42" x2="30" y2="58" stroke="#0f766e" stroke-width="3"/>
      <circle cx="48" cy="48" r="8" fill="none" stroke="#0f766e" stroke-width="2"/>
    </g>
    <text x="100" y="40" font-size="22" font-weight="700" fill="#1f2937">Engine Bench</text>
    <text x="100" y="68" font-size="14" fill="#475569">eddy-current dynamometer &#183; RPM &#183; torque</text>
  </g>

  <!-- CARD 4 Storage -->
  <g transform="translate(60, 450)">
    <rect width="380" height="92" fill="#f0fdfa" stroke="#0f766e" stroke-width="2" rx="10"/>
    <g transform="translate(18, 16)">
      <rect x="2" y="16" width="48" height="28" fill="none" stroke="#0f766e" stroke-width="2" rx="3"/>
      <rect x="50" y="22" width="6" height="16" fill="#0f766e"/>
      <rect x="6" y="20" width="9" height="20" fill="#0f766e"/>
      <rect x="17" y="20" width="9" height="20" fill="#0f766e"/>
      <rect x="28" y="20" width="9" height="20" fill="#0f766e"/>
    </g>
    <text x="100" y="40" font-size="22" font-weight="700" fill="#1f2937">Energy Storage</text>
    <text x="100" y="68" font-size="14" fill="#475569">LiFePO&#8324; pack &#183; grid-forming inverter</text>
  </g>

  <!-- SLOW LABEL -->
  <rect x="60" y="562" width="380" height="34" fill="#475569" rx="6"/>
  <text x="74" y="585" font-size="16" font-weight="700" fill="#ffffff">SLOW &#183; Biological / Thermal / Chemical &#183; 5 s</text>

  <!-- CARD 5 Biogas -->
  <g transform="translate(60, 606)">
    <rect width="380" height="92" fill="#f1f5f9" stroke="#475569" stroke-width="2" rx="10"/>
    <g transform="translate(18, 16)">
      <ellipse cx="30" cy="14" rx="20" ry="6" fill="none" stroke="#475569" stroke-width="2"/>
      <path d="M10,14 L10,52 Q30,60 50,52 L50,14" fill="none" stroke="#475569" stroke-width="2"/>
      <circle cx="22" cy="36" r="3" fill="#475569"/>
      <circle cx="32" cy="44" r="2" fill="#475569"/>
      <circle cx="40" cy="32" r="2.5" fill="#475569"/>
    </g>
    <text x="100" y="40" font-size="22" font-weight="700" fill="#1f2937">Biogas</text>
    <text x="100" y="68" font-size="14" fill="#475569">anaerobic digester &#183; CH&#8324; &#183; CO&#8322; &#183; H&#8322;S</text>
  </g>

  <!-- CARD 6 Heat/Stirling -->
  <g transform="translate(60, 708)">
    <rect width="380" height="92" fill="#f1f5f9" stroke="#475569" stroke-width="2" rx="10"/>
    <g transform="translate(18, 16)">
      <rect x="8" y="14" width="22" height="46" fill="none" stroke="#475569" stroke-width="2" rx="3"/>
      <rect x="14" y="22" width="10" height="18" fill="#475569"/>
      <path d="M38,16 Q48,22 38,28 Q48,34 38,40 Q48,46 38,52" fill="none" stroke="#475569" stroke-width="2"/>
      <circle cx="52" cy="32" r="3" fill="#475569"/>
    </g>
    <text x="100" y="40" font-size="22" font-weight="700" fill="#1f2937">Heat / Stirling</text>
    <text x="100" y="68" font-size="14" fill="#475569">Stirling engine + PCM thermal storage</text>
  </g>

  <!-- CARD 7 Algae -->
  <g transform="translate(60, 810)">
    <rect width="380" height="92" fill="#f1f5f9" stroke="#475569" stroke-width="2" rx="10"/>
    <g transform="translate(18, 16)">
      <rect x="6" y="14" width="48" height="46" fill="none" stroke="#475569" stroke-width="2" rx="6"/>
      <rect x="10" y="38" width="40" height="20" fill="#0f766e" opacity="0.45" rx="3"/>
      <line x1="16" y1="14" x2="16" y2="60" stroke="#475569" stroke-width="1"/>
      <line x1="30" y1="14" x2="30" y2="60" stroke="#475569" stroke-width="1"/>
      <line x1="44" y1="14" x2="44" y2="60" stroke="#475569" stroke-width="1"/>
    </g>
    <text x="100" y="40" font-size="22" font-weight="700" fill="#1f2937">Algae Photobioreactor</text>
    <text x="100" y="68" font-size="14" fill="#475569">indoor (LED) + outdoor &#183; pH &#183; DO &#183; OD</text>
  </g>

  <!-- CONVERGING ARROWS -->
  <g stroke="#0f766e" stroke-width="2.2" fill="none">
    <path d="M440,190 C540,190 600,330 720,480"/>
    <path d="M440,292 C540,292 600,360 720,510"/>
    <path d="M440,394 C540,394 620,420 720,540"/>
    <path d="M440,496 C540,496 620,460 720,570"/>
  </g>
  <g stroke="#475569" stroke-width="2.2" fill="none">
    <path d="M440,652 C540,652 620,630 720,610"/>
    <path d="M440,754 C540,754 620,690 720,640"/>
    <path d="M440,856 C540,856 620,750 720,670"/>
  </g>
  <g fill="#0f766e">
    <polygon points="720,480 706,474 706,486"/>
    <polygon points="720,510 706,504 706,516"/>
    <polygon points="720,540 706,534 706,546"/>
    <polygon points="720,570 706,564 706,576"/>
  </g>
  <g fill="#475569">
    <polygon points="720,610 706,604 706,616"/>
    <polygon points="720,640 706,634 706,646"/>
    <polygon points="720,670 706,664 706,676"/>
  </g>

  <!-- EDGE GATEWAY -->
  <g transform="translate(730, 380)">
    <rect width="380" height="440" fill="#0f766e" rx="16"/>
    <rect x="10" y="10" width="360" height="420" fill="none" stroke="#ccfbf1" stroke-width="1.5" rx="12"/>
    <text x="190" y="58"  font-size="34" font-weight="700" fill="#ffffff" text-anchor="middle">Edge Gateway</text>
    <line x1="40" y1="80" x2="340" y2="80" stroke="#ccfbf1" stroke-width="1.5"/>
    <text x="190" y="124" font-size="26" font-weight="700" fill="#ccfbf1" text-anchor="middle">Canonical Data Model</text>
    <text x="190" y="156" font-size="17" font-style="italic" fill="#ccfbf1" text-anchor="middle">measurement &#183; tags &#183; fields &#183; ts</text>
    <g transform="translate(36, 200)">
      <circle cx="6" cy="6" r="5" fill="#ccfbf1"/>
      <text x="22" y="11" font-size="17" font-weight="600" fill="#ffffff">CDM translation layer</text>
      <text x="22" y="34" font-size="14" fill="#ccfbf1">heterogeneous &#8594; unified contract</text>
    </g>
    <g transform="translate(36, 270)">
      <circle cx="6" cy="6" r="5" fill="#ccfbf1"/>
      <text x="22" y="11" font-size="17" font-weight="600" fill="#ffffff">Null-Pruning loop</text>
      <text x="22" y="34" font-size="14" fill="#ccfbf1">100 % purity before persistence</text>
    </g>
    <g transform="translate(36, 340)">
      <circle cx="6" cy="6" r="5" fill="#ccfbf1"/>
      <text x="22" y="11" font-size="17" font-weight="600" fill="#ffffff">Metadata separation</text>
      <text x="22" y="34" font-size="14" fill="#ccfbf1">tags vs fields &#183; bounded cardinality</text>
    </g>
  </g>

  <!-- ARROW Edge to MING -->
  <text x="1185" y="585" font-size="14" font-style="italic" fill="#475569" text-anchor="middle">normalise at the edge</text>
  <text x="1185" y="605" font-size="14" font-style="italic" fill="#475569" text-anchor="middle">&#8212; before storage &#8212;</text>
  <line x1="1115" y1="620" x2="1255" y2="620" stroke="#0f766e" stroke-width="3"/>
  <polygon points="1255,620 1237,610 1237,630" fill="#0f766e"/>

  <!-- MING STACK -->
  <g transform="translate(1265, 380)">
    <rect x="0" y="0" width="220" height="200" fill="#f0fdfa" stroke="#0f766e" stroke-width="2" rx="10"/>
    <text x="110" y="80"  font-size="80" font-weight="800" fill="#0f766e" text-anchor="middle">M</text>
    <text x="110" y="130" font-size="20" font-weight="700" fill="#1f2937" text-anchor="middle">Mosquitto</text>
    <text x="110" y="158" font-size="14" fill="#475569" text-anchor="middle">MQTT broker</text>

    <rect x="230" y="0" width="220" height="200" fill="#f0fdfa" stroke="#0f766e" stroke-width="2" rx="10"/>
    <text x="340" y="80"  font-size="80" font-weight="800" fill="#0f766e" text-anchor="middle">I</text>
    <text x="340" y="130" font-size="20" font-weight="700" fill="#1f2937" text-anchor="middle">InfluxDB</text>
    <text x="340" y="158" font-size="14" fill="#475569" text-anchor="middle">time-series DB</text>

    <rect x="0" y="220" width="220" height="200" fill="#f0fdfa" stroke="#0f766e" stroke-width="2" rx="10"/>
    <text x="110" y="300" font-size="80" font-weight="800" fill="#0f766e" text-anchor="middle">N</text>
    <text x="110" y="350" font-size="20" font-weight="700" fill="#1f2937" text-anchor="middle">Node-RED</text>
    <text x="110" y="378" font-size="14" fill="#475569" text-anchor="middle">middleware flows</text>

    <rect x="230" y="220" width="220" height="200" fill="#f0fdfa" stroke="#0f766e" stroke-width="2" rx="10"/>
    <text x="340" y="300" font-size="80" font-weight="800" fill="#0f766e" text-anchor="middle">G</text>
    <text x="340" y="350" font-size="20" font-weight="700" fill="#1f2937" text-anchor="middle">Grafana</text>
    <text x="340" y="378" font-size="14" fill="#475569" text-anchor="middle">dashboards</text>
  </g>

  <!-- ARROW MING to React -->
  <line x1="1725" y1="600" x2="1855" y2="600" stroke="#0f766e" stroke-width="3"/>
  <polygon points="1855,600 1837,590 1837,610" fill="#0f766e"/>

  <!-- REACT OPERATOR UI -->
  <g transform="translate(1865, 260)">
    <rect width="450" height="660" fill="#ffffff" stroke="#0f766e" stroke-width="2" rx="12"/>
    <rect x="0" y="0" width="450" height="44" fill="#0f766e" rx="12"/>
    <rect x="0" y="30" width="450" height="14" fill="#0f766e"/>
    <circle cx="18" cy="22" r="5" fill="#ccfbf1"/>
    <circle cx="34" cy="22" r="5" fill="#ccfbf1"/>
    <circle cx="50" cy="22" r="5" fill="#ccfbf1"/>
    <text x="225" y="28" font-size="16" font-weight="600" fill="#ffffff" text-anchor="middle">edubad.zut.edu.pl</text>

    <rect x="20"  y="60" width="130" height="62" fill="#f0fdfa" stroke="#0f766e" stroke-width="1" rx="6"/>
    <text x="85"  y="82" font-size="13" fill="#475569" text-anchor="middle">PV power</text>
    <text x="85"  y="108" font-size="20" font-weight="700" fill="#0f766e" text-anchor="middle">12.5 kW</text>
    <rect x="160" y="60" width="130" height="62" fill="#f0fdfa" stroke="#0f766e" stroke-width="1" rx="6"/>
    <text x="225" y="82" font-size="13" fill="#475569" text-anchor="middle">Wind</text>
    <text x="225" y="108" font-size="20" font-weight="700" fill="#0f766e" text-anchor="middle">3.8 kW</text>
    <rect x="300" y="60" width="130" height="62" fill="#f0fdfa" stroke="#0f766e" stroke-width="1" rx="6"/>
    <text x="365" y="82" font-size="13" fill="#475569" text-anchor="middle">SOC</text>
    <text x="365" y="108" font-size="20" font-weight="700" fill="#0f766e" text-anchor="middle">72.5 %</text>

    <rect x="20"  y="134" width="130" height="62" fill="#f1f5f9" stroke="#475569" stroke-width="1" rx="6"/>
    <text x="85"  y="156" font-size="13" fill="#475569" text-anchor="middle">pH</text>
    <text x="85"  y="182" font-size="20" font-weight="700" fill="#475569" text-anchor="middle">7.15</text>
    <rect x="160" y="134" width="130" height="62" fill="#f1f5f9" stroke="#475569" stroke-width="1" rx="6"/>
    <text x="225" y="156" font-size="13" fill="#475569" text-anchor="middle">CH&#8324;</text>
    <text x="225" y="182" font-size="20" font-weight="700" fill="#475569" text-anchor="middle">63.4 %</text>
    <rect x="300" y="134" width="130" height="62" fill="#f1f5f9" stroke="#475569" stroke-width="1" rx="6"/>
    <text x="365" y="156" font-size="13" fill="#475569" text-anchor="middle">T_hot</text>
    <text x="365" y="182" font-size="20" font-weight="700" fill="#475569" text-anchor="middle">550 &#176;C</text>

    <rect x="20" y="220" width="410" height="180" fill="#f0fdfa" stroke="#0f766e" stroke-width="1" rx="6"/>
    <text x="32" y="240" font-size="12" fill="#475569">Fast &#183; active power &#183; 1 s</text>
    <polyline points="30,380 70,340 110,360 150,300 190,320 230,260 270,280 310,220 350,240 390,200 420,210" fill="none" stroke="#0f766e" stroke-width="2.5"/>
    <line x1="30" y1="385" x2="425" y2="385" stroke="#94a3b8" stroke-width="1"/>
    <line x1="30" y1="250" x2="30" y2="385" stroke="#94a3b8" stroke-width="1"/>

    <rect x="20" y="412" width="410" height="226" fill="#f1f5f9" stroke="#475569" stroke-width="1" rx="6"/>
    <text x="32" y="432" font-size="12" fill="#475569">Slow &#183; pH / DO / OD &#183; 5 s</text>
    <g fill="#475569">
      <rect x="40"  y="540" width="28" height="76"/>
      <rect x="80"  y="520" width="28" height="96"/>
      <rect x="120" y="510" width="28" height="106"/>
      <rect x="160" y="530" width="28" height="86"/>
      <rect x="200" y="510" width="28" height="106"/>
      <rect x="240" y="498" width="28" height="118"/>
      <rect x="280" y="528" width="28" height="88"/>
      <rect x="320" y="514" width="28" height="102"/>
      <rect x="360" y="520" width="28" height="96"/>
      <rect x="400" y="540" width="22" height="76"/>
    </g>
    <line x1="30" y1="618" x2="425" y2="618" stroke="#94a3b8" stroke-width="1"/>
    <line x1="30" y1="440" x2="30" y2="618" stroke="#94a3b8" stroke-width="1"/>
  </g>

  <!-- BOTTOM TAKEAWAY -->
  <rect x="60" y="1085" width="2280" height="68" fill="#0f766e" rx="34"/>
  <text x="1200" y="1129" font-size="24" font-weight="600" fill="#ffffff" text-anchor="middle">12 vectors &#183; 7 categories &#183; 1 canonical model &#8212; normalised at the edge &#8212; reproducible (Zenodo DOI 10.5281/zenodo.20415136)</text>
</svg>
